inDegrees=no
num_controls=7
num_derivatives=13
num_iterations=47
num_multipliers=7
num_parameters=0
num_slacks=7
num_states=26
objective=0.471898
objective_accelerations=0.062736
objective_balance=0.000928
objective_effort=0.017887
objective_height=0.381178
objective_ligament=0.009169
solver_duration=643.949017
status=Solve_Succeeded
success=true
DataType=double
version=3
OpenSimVersion=4.5
endheader
time	/jointset/ground_pelvis/pelvis_tilt/value	/jointset/ground_pelvis/pelvis_tx/value	/jointset/ground_pelvis/pelvis_ty/value	/jointset/hip_l/hip_flexion_l/value	/jointset/hip_l/hip_adduction_l/value	/jointset/hip_l/hip_rotation_l/value	/jointset/back/lumbar_extension/value	/jointset/patellofemoral_l/patellar_flexion_l/value	/jointset/knee_l/knee_flexion_l/value	/jointset/knee_l/knee_adduction_l/value	/jointset/knee_l/knee_rotation_l/value	/jointset/ankle_l/ankle_angle_l/value	/jointset/subtalar_l/subtalar_angle_l/value	/jointset/ground_pelvis/pelvis_tilt/speed	/jointset/ground_pelvis/pelvis_tx/speed	/jointset/ground_pelvis/pelvis_ty/speed	/jointset/hip_l/hip_flexion_l/speed	/jointset/hip_l/hip_adduction_l/speed	/jointset/hip_l/hip_rotation_l/speed	/jointset/back/lumbar_extension/speed	/jointset/patellofemoral_l/patellar_flexion_l/speed	/jointset/knee_l/knee_flexion_l/speed	/jointset/knee_l/knee_adduction_l/speed	/jointset/knee_l/knee_rotation_l/speed	/jointset/ankle_l/ankle_angle_l/speed	/jointset/subtalar_l/subtalar_angle_l/speed	/forceset/tau_hip_flexion_l	/forceset/tau_hip_adduction_l	/forceset/tau_hip_rotation_l	/forceset/tau_knee_flexion_l	/forceset/tau_ankle_angle_l	/forceset/tau_subtalar_angle_l	/forceset/tau_lumbar_extension	lambda_cid13_p0	lambda_cid13_p1	lambda_cid13_p2	lambda_cid13_p3	lambda_cid13_p4	lambda_cid13_p5	lambda_cid14_p0	/jointset/ground_pelvis/pelvis_tilt/accel	/jointset/ground_pelvis/pelvis_tx/accel	/jointset/ground_pelvis/pelvis_ty/accel	/jointset/hip_l/hip_flexion_l/accel	/jointset/hip_l/hip_adduction_l/accel	/jointset/hip_l/hip_rotation_l/accel	/jointset/back/lumbar_extension/accel	/jointset/patellofemoral_l/patellar_flexion_l/accel	/jointset/knee_l/knee_flexion_l/accel	/jointset/knee_l/knee_adduction_l/accel	/jointset/knee_l/knee_rotation_l/accel	/jointset/ankle_l/ankle_angle_l/accel	/jointset/subtalar_l/subtalar_angle_l/accel	gamma_cid13_p0	gamma_cid13_p1	gamma_cid13_p2	gamma_cid13_p3	gamma_cid13_p4	gamma_cid13_p5	gamma_cid14_p0
0.5	-0.3247398324910262	-0.00608105171300196	0.7818073060647884	1.073793813243393	-0.3563754008185568	-0.03758147482109643	-0.4041725922938814	0.821620444009169	0.8216204440091478	-0.04258361721163546	-0.1736976451111135	0.1891439921001	0.1242635918591406	-1.06881013680743	-0.2595059352504358	-0.4763506480907821	2.604723304821624	0.02944413661430287	0.4977313198320711	-0.284739714039825	1.62561457319416	1.625614573194131	0.2104352638507677	-0.00818468700247834	0.2160028904365206	0.1047686247397863	-0.1404717819766767	0.0617287379446683	0.001379618348883399	-0.1554506330565468	0.03435371444951917	-0.01990686510356812	0.1363168940335288	-15.65394143797191	13.00078311109738	-4.197655061501132	-0.4231123428357705	-438.2060648557511	-30.2299742543969	-10.16910502860211	0.3603496596872294	0.4193538310339861	-0.3932746929279867	-1.258531030497012	0.2428296779437388	-0.4213298878502779	1.412582788252151	-1.308894599680147	-1.308894599680154	-0.2589488727456832	0.1495097437202457	-0.5254149590749817	0.1465910398211857	-2.820312952603987e-07	-5.518732558312511e-07	2.494372033474721e-06	5.602620624884898e-08	-6.601679085413555e-07	-1.722882184901367e-07	-4.230147034151819e-07
0.51	-0.3354076216021254	-0.00865472902942481	0.7770252500960998	1.099773182439995	-0.3560706764470198	-0.03262434957167287	-0.4069502608311505	0.8378083874113617	0.8378083874113746	-0.04049670569664714	-0.173773152380873	0.1912769205601482	0.1253160776707498	-1.064614391702799	-0.2551967406347769	-0.4799577470851918	2.59081018716416	0.03149838774017601	0.4935531067525903	-0.2707791401177254	1.611753053706977	1.611753053706964	0.2070022018092805	-0.006983027064086895	0.2105560054562743	0.1057169620673914	-0.1462313523494812	0.06273860342624656	0.0007810894700700019	-0.1561230813442105	0.03375815440880893	-0.01922740644572096	0.1403913259769194	-15.96846030710843	12.8704435900206	-4.302156319201095	-0.500794260646893	-441.2187282037883	-30.16254506108912	-9.492627713715343	0.469142047941348	0.4416331451971539	-0.3291357013180568	-1.508805658806057	0.1860933978618512	-0.4375421248875113	1.390022689527747	-1.457855435865368	-1.457855435863258	-0.3772391753034779	0.09603521331598884	-0.5583696978717979	0.06700097132987454	-2.781235433722984e-07	-4.91060759463186e-07	2.477008233725601e-06	6.2577598003113e-08	-6.336010856983106e-07	-9.457940040446886e-08	-4.177311032989548e-07
0.52	-0.3460294622397646	-0.01118432822602012	0.772210181497742	1.125603199754937	-0.3557455354506295	-0.02771330147441927	-0.4095878780301273	0.8538511006562062	0.8538511006561381	-0.03844247566349977	-0.1738385348322057	0.1933545712843176	0.1263776560340554	-1.059620442114503	-0.250690311284928	-0.4829531740242256	2.574852928489264	0.033527461584143	0.4885158893975151	-0.2567294463819897	1.596568541714687	1.59656854171469	0.2038989675496818	-0.006159723349009544	0.2049473432611351	0.1065871350789918	-0.1519909227222114	0.06374846890786039	0.0001825605897446848	-0.1567955296318387	0.03316259436812897	-0.01854794778779829	0.1444657579203781	-16.28208154382904	12.73686377251001	-4.402617932473547	-0.5989099528773231	-444.2231778693266	-30.1679813909036	-8.820025445021118	0.5199905564210853	0.4588007778711358	-0.2709402818529446	-1.667359233983233	0.2377942215625876	-0.5931307429689957	1.430406750979748	-1.573493100701436	-1.573493100701433	-0.1929833163677906	0.07383849905753156	-0.5577704020546409	0.1309581766200153	-2.778787190781974e-07	-5.049443513891714e-07	2.457852428492968e-06	6.00996368073322e-08	-6.208488986500916e-07	-4.139184322465121e-08	-4.210446416320837e-07
0.53	-0.3565973631909558	-0.01366798590136049	0.767368256257814	1.151263517937416	-0.3554004960520391	-0.02285539121055475	-0.412084778788793	0.8697353709018579	0.8697353709018023	-0.0364190388685392	-0.1738968200447262	0.1953751922451839	0.1274471380856549	-1.05382005488503	-0.2460187054429862	-0.4853247257900907	2.556870021696037	0.03545848595704675	0.4830844586928822	-0.2426626977803691	1.580063912129751	1.580063912129751	0.2007050943024657	-0.005469807734761515	0.19913829575732	0.1072668271116142	-0.157827237348263	0.0646309002351708	-0.0003522792077431958	-0.157360207749263	0.03222311235111643	-0.01797420274176736	0.1485268884287617	-16.72446399669498	12.66488818158635	-4.505075059231446	-0.5103304690770617	-447.3267604200423	-30.08200949002843	-8.153122660130574	0.6309769840827213	0.4747299957043236	-0.2043132287557286	-1.914911218589911	0.1671982431831442	-0.5157858726963486	1.393010051274102	-1.722102622690249	-1.722102622690685	-0.3951296002095543	0.07117038149948075	-0.5982827990499521	0.02989880081128676	-2.761718530006343e-07	-4.704888795432907e-07	2.454146126642106e-06	6.531621876257034e-08	-6.01155226059129e-07	2.982135878250576e-08	-4.207022428672627e-07
0.54	-0.367103077434283	-0.01610424961661355	0.762505805379266	1.176733776088646	-0.3550368580701109	-0.01805132258143544	-0.4144413718341342	0.885447963904592	0.8854479639045603	-0.03443004886039529	-0.1739472856432891	0.197336560556111	0.1285221018744264	-1.047183100540599	-0.2412115192674673	-0.4870583017478546	2.536840922238888	0.03724717825110003	0.4777475624488246	-0.2286679037178364	1.562233093132806	1.562233093132805	0.1970096102028162	-0.004595800564874193	0.1930968132733046	0.1076834825133604	-0.163663551974222	0.06551333156248597	-0.0008871190056188782	-0.1579248858666616	0.03128363033411493	-0.0174004576957179	0.1525880189372364	-17.1652978972586	12.58689047863842	-4.600002186689885	-0.445512698512308	-450.4153884112141	-30.07333591970075	-7.509241853911139	0.6873039794133137	0.4859168445857398	-0.1433451202328039	-2.076597766767675	0.2093278057926244	-0.5742238508537825	1.416015843162582	-1.838730983102933	-1.838730983102935	-0.2933054868543251	0.1106568101855041	-0.6042573980957935	0.07835085044455099	-2.728474087796664e-07	-3.825518903327917e-07	2.467532892362566e-06	7.904591228914868e-08	-5.737816120166201e-07	1.209778274071448e-07	-4.163149775259864e-07
0.55	-0.3775384600428272	-0.01849177951274177	0.7576292068613839	1.201993899301003	-0.3546558692054056	-0.01330087344046865	-0.416658319304419	0.9009759154148761	0.9009759154148443	-0.03247965303062075	-0.173988589176651	0.1992365739791724	0.1296001965092923	-1.039763472603428	-0.2362725341207451	-0.4881529498239104	2.514859691403291	0.0389397463277069	0.4722519888630673	-0.2147405310873741	1.543156151236169	1.543156151236169	0.1930899605872401	-0.003702800378128857	0.1868868619009827	0.1079142160971906	-0.1693397590450464	0.06610753730265947	-0.001380129336025953	-0.1588081650405068	0.03074824689601219	-0.01694480649708426	0.1565076027046335	-17.487638127062	12.55257540648003	-4.716905746622551	-0.4645662267631213	-453.5534661722265	-30.04355320745884	-6.89784129853297	0.7887466116304844	0.5011955300823721	-0.07636862103474583	-2.307539324521591	0.1473056077333064	-0.5511321317815041	1.378256861672172	-1.972251660890108	-1.972251660890039	-0.4382623816997264	0.07342171198522038	-0.6322367371803429	-0.007989740396932628	-2.657764737483763e-07	-2.899298761491492e-07	2.450525897711856e-06	9.149863501814088e-08	-5.426767999620081e-07	2.051286726796266e-07	-4.061049091666458e-07
